<?xml version="1.0" encoding="utf-8"?>
<!-- Generator: Adobe Illustrator 16.0.0, SVG Export Plug-In . SVG Version: 6.00 Build 0)  -->
<!DOCTYPE svg PUBLIC "-//W3C//DTD SVG 1.1//EN" "http://www.w3.org/Graphics/SVG/1.1/DTD/svg11.dtd">
<svg version="1.1" id="Layer_1" xmlns="http://www.w3.org/2000/svg" xmlns:xlink="http://www.w3.org/1999/xlink" x="0px" y="0px"
	 width="612px" height="792px" viewBox="0 0 612 792" enable-background="new 0 0 612 792" xml:space="preserve">
<path fill="#1FB1EA" d="M340.12,376.279c-0.027,0-0.054,0.004-0.08,0.004c0.037-0.589,0.08-1.178,0.08-1.777
	c0-13.15-9.395-23.811-20.979-23.811c-2.41,0-4.718,0.485-6.873,1.335c-4.064-16.375-17.289-28.392-33.017-28.392
	c-18.959,0-34.328,17.444-34.328,38.962c0,2.751,0.257,5.431,0.736,8.019c-2.607-1.318-5.486-2.066-8.524-2.066
	c-11.586,0-20.978,10.66-20.978,23.811c0,12.306,8.224,22.424,18.771,23.676v0.134H340.12c9.704,0,17.573-8.929,17.573-19.947
	C357.695,385.21,349.826,376.279,340.12,376.279z"/>
</svg>
